<svg width="365" height="354" viewBox="0 0 365 354" fill="none" xmlns="http://www.w3.org/2000/svg">
    <path d="M166 1.5H199C217.502 1.5 232.5 16.4985 232.5 35V68C232.5 86.5015 217.502 101.5 199 101.5H166C147.498 101.5 132.5 86.5015 132.5 68V35C132.5 16.4985 147.498 1.5 166 1.5Z"
          stroke="black" stroke-opacity="0.05" stroke-width="3"/>
    <path d="M171.365 131.319C177.791 124.894 188.209 124.894 194.635 131.319L228.681 165.365C235.106 171.791 235.106 182.209 228.681 188.635L194.635 222.681C188.209 229.106 177.791 229.106 171.365 222.681L137.319 188.635C130.894 182.209 130.894 171.791 137.319 165.365L171.365 131.319Z"
          stroke="black" stroke-opacity="0.05" stroke-width="3"/>
    <rect x="2.5" y="251.5" width="100" height="100" rx="50" stroke="black" stroke-opacity="0.05" stroke-width="3"/>
    <rect x="257.5" y="3.5" width="100" height="100" rx="50" stroke="black" stroke-opacity="0.05" stroke-width="3"/>
    <path d="M291.824 260.495C298.838 248.502 316.162 248.502 323.176 260.495L360.984 325.149C368.07 337.265 359.335 352.5 345.309 352.5H269.691C255.665 352.5 246.93 337.265 254.016 325.149L291.824 260.495Z"
          stroke="black" stroke-opacity="0.05" stroke-width="3"/>
    <path d="M299.404 131.12C303.482 124.96 312.518 124.96 316.596 131.12L328.743 149.469C330.605 152.28 333.462 154.281 336.74 155.066L350.581 158.383C358.524 160.286 361.21 170.241 355.3 175.888L345.156 185.577C342.117 188.481 340.626 192.65 341.134 196.824L343.456 215.909C344.445 224.035 336.046 230.02 328.7 226.435L313.836 219.178C310.153 217.38 305.847 217.38 302.164 219.178L287.3 226.435C279.954 230.02 271.555 224.035 272.544 215.909L274.866 196.824C275.374 192.65 273.883 188.481 270.844 185.577L260.7 175.888C254.79 170.241 257.476 160.286 265.419 158.383L279.26 155.066C282.538 154.281 285.395 152.28 287.257 149.469L299.404 131.12Z"
          stroke="black" stroke-opacity="0.05" stroke-width="3"/>
    <path d="M35.6738 132.138C46.0096 124.621 59.9904 124.621 70.3262 132.138L92.3018 148.12C102.672 155.662 107.014 169.054 103.047 181.276L94.6797 207.052C90.7206 219.249 79.3889 227.5 66.6094 227.5H39.3906C26.6111 227.5 15.2794 219.249 11.3203 207.052L2.95312 181.276C-1.01401 169.054 3.32821 155.662 13.6982 148.12L35.6738 132.138Z"
          stroke="black" stroke-opacity="0.05" stroke-width="3"/>
    <path d="M175.39 253.104C179.885 250.965 185.115 250.965 189.61 253.104L218.145 266.682C222.668 268.834 225.953 272.916 227.073 277.766L234.083 308.11C235.207 312.977 234.03 318.088 230.884 321.985L211.196 346.379C208.074 350.247 203.352 352.5 198.356 352.5H166.644C161.648 352.5 156.926 350.247 153.804 346.379L134.116 321.985C130.97 318.088 129.793 312.977 130.917 308.11L137.927 277.766C139.047 272.916 142.332 268.834 146.855 266.682L175.39 253.104Z"
          stroke="black" stroke-opacity="0.05" stroke-width="3"/>
    <g transform="translate(2.5 2) scale(2.5)">
        <path d="M18.5 6c2.6 3.1 3.1 6.2 1.6 9.3 3.4-1 5.1-3.4 5.1-7.2 3.8 3.4 5.7 7.6 5.7 12.6 0 7.1-5.5 12.9-13 12.9S5 27.8 5 20.7c0-3.3 1.2-6.4 3.4-8.9.2 2.8 1.5 4.6 3.9 5.4-1.3-4.2-.1-8 3.7-11.2.4 3 1.6 4.9 3.6 5.9C21.4 13.4 21 9.8 18.5 6Z"
              fill="#17d6be"/>
    </g>
</svg>
